<svg width="32" height="32" viewBox="0 0 32 47" fill="none" xmlns="http://www.w3.org/2000/svg">
    <path fill-rule="evenodd" clip-rule="evenodd" d="M23.3958 22.8496C23.3524 23.1183 23.2466 23.3741 23.0863 23.5978C22.926 23.8214 22.7154 24.0072 22.4703 24.141C21.9766 24.449 21.5447 24.603 21.1077 24.757C20.177 25.0674 19.1974 25.3779 18.1613 25.738C17.0687 26.0982 16.0891 26.4583 15.215 26.7191C14.1249 27.0792 13.0888 27.3897 12.1041 27.7498C11.3633 28.056 10.6674 28.4552 10.0345 28.937C9.44584 29.4522 8.93212 30.042 8.50734 30.6904C8.07027 31.4107 7.79518 32.3396 7.79518 33.4224C7.79518 35.5907 8.34022 37.2398 9.43289 38.2705C10.523 39.3559 12.5438 39.87 15.5389 39.87C18.5932 39.87 20.6654 39.3037 21.7607 38.1687C22.8482 37.0337 23.3932 35.4367 23.3932 33.3752V22.8496H23.3958ZM15.5415 0C20.8891 0 24.815 0.98104 27.3217 2.99279C29.831 4.95487 31.0856 7.47826 31.0856 10.4686V35.9508C31.0856 36.9815 30.8696 38.1165 30.4891 39.3534C30.1035 40.5952 29.3425 41.7278 28.1418 42.756C26.9977 43.7917 25.4166 44.6684 23.3984 45.339C21.3802 46.0096 18.7629 46.3697 15.5441 46.3697C12.3304 46.3697 9.70798 46.0096 7.69234 45.339C5.6767 44.6684 4.09298 43.7917 2.9489 42.756C1.8846 41.8294 1.07834 40.6594 0.604178 39.3534C0.218532 38.119 0 36.984 0 35.9533V31.8801C0 29.7119 0.599036 27.7001 1.79968 25.9442C3.00032 24.141 4.68945 22.9042 6.8722 22.1293C7.96229 21.7692 9.21692 21.409 10.6335 20.9446C12.0527 20.4777 13.3588 20.0132 14.6699 19.6034C15.9811 19.1887 17.1252 18.7739 18.1048 18.4113C18.6959 18.1828 19.2963 17.9773 19.9044 17.7953L20.8866 17.3309C21.2722 17.1247 21.6501 16.8143 22.0332 16.402C22.4137 15.9922 22.7402 15.5278 23.0153 15.0112C23.306 14.4518 23.4557 13.8339 23.4524 13.208V11.5564C23.4564 10.9511 23.3249 10.3521 23.0667 9.80047C22.8508 9.17956 22.4137 8.61329 21.8147 8.09917C21.2156 7.58257 20.3955 7.17029 19.416 6.85735C18.4338 6.55186 17.1278 6.39539 15.6521 6.39539C12.5977 6.39539 10.5795 6.96663 9.48945 8.14885C8.5639 9.18204 8.01885 10.4711 7.91087 11.9141C7.91087 12.2245 7.63835 12.4307 7.30927 12.4307L0.658168 12.535C0.500177 12.5356 0.348309 12.476 0.235632 12.369C0.122956 12.262 0.0585941 12.1163 0.0565613 11.9637V10.4735C0.0565613 9.02557 0.331655 7.6844 0.930691 6.39539C1.5323 5.10389 2.46042 4.02351 3.71248 3.09214C4.96711 2.16574 6.60482 1.39333 8.56647 0.876727C10.4767 0.255816 12.8214 0 15.5466 0H15.5415Z" fill="#ea4c89"/>
</svg>
